<mxfile host="app.diagrams.net" modified="2023-12-08T14:20:40.668Z" agent="Mozilla/5.0 (Windows NT 10.0; Win64; x64) AppleWebKit/537.36 (KHTML, like Gecko) Chrome/119.0.0.0 Safari/537.36" etag="_oU7iqoaSuLS_sStmhkD" version="22.1.7" type="github">
  <diagram name="Página-1" id="iPPQhOj9I8ZCV0ZmnHB4">
    <mxGraphModel dx="1050" dy="522" grid="1" gridSize="10" guides="1" tooltips="1" connect="1" arrows="1" fold="1" page="1" pageScale="1" pageWidth="1169" pageHeight="827" math="0" shadow="0">
      <root>
        <mxCell id="0" />
        <mxCell id="1" parent="0" />
        <mxCell id="W13NdgAixYEL23Od-1bi-1" value="Vendedor" style="shape=umlActor;verticalLabelPosition=bottom;verticalAlign=top;html=1;outlineConnect=0;" vertex="1" parent="1">
          <mxGeometry x="120" y="240" width="30" height="60" as="geometry" />
        </mxCell>
        <mxCell id="W13NdgAixYEL23Od-1bi-2" value="Interfaz del vendedor" style="rounded=0;whiteSpace=wrap;html=1;fillColor=none;verticalAlign=top;" vertex="1" parent="1">
          <mxGeometry x="200" y="145" width="160" height="235" as="geometry" />
        </mxCell>
        <mxCell id="W13NdgAixYEL23Od-1bi-3" value="Vender" style="ellipse;whiteSpace=wrap;html=1;fillColor=none;" vertex="1" parent="1">
          <mxGeometry x="235" y="182.5" width="90" height="50" as="geometry" />
        </mxCell>
        <mxCell id="W13NdgAixYEL23Od-1bi-4" value="Gestionar inventario" style="ellipse;whiteSpace=wrap;html=1;fillColor=none;" vertex="1" parent="1">
          <mxGeometry x="235" y="242.5" width="90" height="50" as="geometry" />
        </mxCell>
        <mxCell id="W13NdgAixYEL23Od-1bi-5" value="" style="endArrow=none;html=1;rounded=0;exitX=0.5;exitY=0.5;exitDx=0;exitDy=0;exitPerimeter=0;entryX=0;entryY=0.5;entryDx=0;entryDy=0;" edge="1" parent="1" source="W13NdgAixYEL23Od-1bi-1" target="W13NdgAixYEL23Od-1bi-3">
          <mxGeometry width="50" height="50" relative="1" as="geometry">
            <mxPoint x="160" y="410" as="sourcePoint" />
            <mxPoint x="210" y="360" as="targetPoint" />
          </mxGeometry>
        </mxCell>
        <mxCell id="W13NdgAixYEL23Od-1bi-6" value="" style="endArrow=none;html=1;rounded=0;exitX=0.5;exitY=0.5;exitDx=0;exitDy=0;exitPerimeter=0;entryX=0;entryY=0.5;entryDx=0;entryDy=0;" edge="1" parent="1" source="W13NdgAixYEL23Od-1bi-1" target="W13NdgAixYEL23Od-1bi-4">
          <mxGeometry width="50" height="50" relative="1" as="geometry">
            <mxPoint x="145" y="280" as="sourcePoint" />
            <mxPoint x="245" y="235" as="targetPoint" />
          </mxGeometry>
        </mxCell>
        <mxCell id="W13NdgAixYEL23Od-1bi-7" value="Cerrar sesión" style="ellipse;whiteSpace=wrap;html=1;fillColor=none;" vertex="1" parent="1">
          <mxGeometry x="235" y="307.5" width="90" height="50" as="geometry" />
        </mxCell>
        <mxCell id="W13NdgAixYEL23Od-1bi-8" value="" style="endArrow=none;html=1;rounded=0;exitX=0.5;exitY=0.5;exitDx=0;exitDy=0;exitPerimeter=0;entryX=0;entryY=0.5;entryDx=0;entryDy=0;" edge="1" parent="1" source="W13NdgAixYEL23Od-1bi-1" target="W13NdgAixYEL23Od-1bi-7">
          <mxGeometry width="50" height="50" relative="1" as="geometry">
            <mxPoint x="145" y="280" as="sourcePoint" />
            <mxPoint x="245" y="310" as="targetPoint" />
          </mxGeometry>
        </mxCell>
      </root>
    </mxGraphModel>
  </diagram>
</mxfile>
